<mxfile host="app.diagrams.net" modified="2024-05-20T19:03:32.368Z" agent="Mozilla/5.0 (Windows NT 10.0; Win64; x64) AppleWebKit/537.36 (KHTML, like Gecko) Chrome/122.0.0.0 YaBrowser/24.4.0.0 Safari/537.36" etag="sQQFFT1YmO2POMQ4qwS7" version="24.4.4" type="device">
  <diagram name="Страница — 1" id="X-vHcAP235UxSQr0aM7I">
    <mxGraphModel dx="1393" dy="811" grid="0" gridSize="10" guides="1" tooltips="1" connect="1" arrows="1" fold="1" page="1" pageScale="1" pageWidth="827" pageHeight="1169" math="0" shadow="0">
      <root>
        <mxCell id="0" />
        <mxCell id="1" parent="0" />
        <mxCell id="OeztBAv4BWSv31mNgJJ6-24" style="edgeStyle=orthogonalEdgeStyle;rounded=0;orthogonalLoop=1;jettySize=auto;html=1;exitX=0.5;exitY=1;exitDx=0;exitDy=0;entryX=0.5;entryY=0;entryDx=0;entryDy=0;" edge="1" parent="1" source="OeztBAv4BWSv31mNgJJ6-1" target="OeztBAv4BWSv31mNgJJ6-2">
          <mxGeometry relative="1" as="geometry" />
        </mxCell>
        <mxCell id="OeztBAv4BWSv31mNgJJ6-1" value="начало" style="ellipse;whiteSpace=wrap;html=1;" vertex="1" parent="1">
          <mxGeometry x="340" y="50" width="120" height="50" as="geometry" />
        </mxCell>
        <mxCell id="OeztBAv4BWSv31mNgJJ6-25" value="" style="edgeStyle=orthogonalEdgeStyle;rounded=0;orthogonalLoop=1;jettySize=auto;html=1;" edge="1" parent="1" source="OeztBAv4BWSv31mNgJJ6-2" target="OeztBAv4BWSv31mNgJJ6-3">
          <mxGeometry relative="1" as="geometry" />
        </mxCell>
        <mxCell id="OeztBAv4BWSv31mNgJJ6-2" value="class&amp;nbsp;LexicalAnalyzer" style="rounded=0;whiteSpace=wrap;html=1;" vertex="1" parent="1">
          <mxGeometry x="340" y="120" width="120" height="60" as="geometry" />
        </mxCell>
        <mxCell id="OeztBAv4BWSv31mNgJJ6-26" value="" style="edgeStyle=orthogonalEdgeStyle;rounded=0;orthogonalLoop=1;jettySize=auto;html=1;" edge="1" parent="1" source="OeztBAv4BWSv31mNgJJ6-3" target="OeztBAv4BWSv31mNgJJ6-4">
          <mxGeometry relative="1" as="geometry" />
        </mxCell>
        <mxCell id="OeztBAv4BWSv31mNgJJ6-3" value="map&amp;lt;string, Lexeme*&amp;gt; lexemes;" style="rounded=0;whiteSpace=wrap;html=1;" vertex="1" parent="1">
          <mxGeometry x="310" y="200" width="180" height="60" as="geometry" />
        </mxCell>
        <mxCell id="OeztBAv4BWSv31mNgJJ6-27" value="" style="edgeStyle=orthogonalEdgeStyle;rounded=0;orthogonalLoop=1;jettySize=auto;html=1;" edge="1" parent="1" source="OeztBAv4BWSv31mNgJJ6-4" target="OeztBAv4BWSv31mNgJJ6-6">
          <mxGeometry relative="1" as="geometry" />
        </mxCell>
        <mxCell id="OeztBAv4BWSv31mNgJJ6-4" value="LexicalAnalyzer(){&lt;div&gt;&lt;div&gt;&amp;nbsp; &amp;nbsp; string identifiers[]&amp;nbsp;&lt;span style=&quot;background-color: initial;&quot;&gt;;&lt;/span&gt;&lt;span style=&quot;background-color: initial;&quot;&gt;&amp;nbsp; &amp;nbsp; string keywords[]&amp;nbsp;&lt;/span&gt;&lt;span style=&quot;background-color: initial;&quot;&gt;;&lt;/span&gt;&lt;/div&gt;&lt;div&gt;&amp;nbsp; &amp;nbsp; string operators[]&amp;nbsp;&lt;span style=&quot;background-color: initial;&quot;&gt;;&lt;/span&gt;&lt;/div&gt;&lt;div&gt;&amp;nbsp; &amp;nbsp; string literals[]&amp;nbsp;&lt;span style=&quot;background-color: initial;&quot;&gt;;&lt;/span&gt;&lt;/div&gt;&lt;div&gt;&amp;nbsp; &amp;nbsp; string delimiters[] ;&lt;/div&gt;&lt;/div&gt;" style="rounded=0;whiteSpace=wrap;html=1;" vertex="1" parent="1">
          <mxGeometry x="325" y="290" width="150" height="100" as="geometry" />
        </mxCell>
        <mxCell id="OeztBAv4BWSv31mNgJJ6-28" value="" style="edgeStyle=orthogonalEdgeStyle;rounded=0;orthogonalLoop=1;jettySize=auto;html=1;" edge="1" parent="1" source="OeztBAv4BWSv31mNgJJ6-6" target="OeztBAv4BWSv31mNgJJ6-7">
          <mxGeometry relative="1" as="geometry" />
        </mxCell>
        <mxCell id="OeztBAv4BWSv31mNgJJ6-30" style="edgeStyle=orthogonalEdgeStyle;rounded=0;orthogonalLoop=1;jettySize=auto;html=1;entryX=0.5;entryY=0;entryDx=0;entryDy=0;" edge="1" parent="1" source="OeztBAv4BWSv31mNgJJ6-6" target="OeztBAv4BWSv31mNgJJ6-8">
          <mxGeometry relative="1" as="geometry">
            <mxPoint x="400" y="720" as="targetPoint" />
            <Array as="points">
              <mxPoint x="550" y="455" />
              <mxPoint x="550" y="600" />
              <mxPoint x="400" y="600" />
            </Array>
          </mxGeometry>
        </mxCell>
        <mxCell id="OeztBAv4BWSv31mNgJJ6-6" value="for (const string&amp;amp; identifier : identifiers)" style="shape=hexagon;perimeter=hexagonPerimeter2;whiteSpace=wrap;html=1;fixedSize=1;" vertex="1" parent="1">
          <mxGeometry x="330" y="410" width="140" height="90" as="geometry" />
        </mxCell>
        <mxCell id="OeztBAv4BWSv31mNgJJ6-29" style="edgeStyle=orthogonalEdgeStyle;rounded=0;orthogonalLoop=1;jettySize=auto;html=1;entryX=0;entryY=0.5;entryDx=0;entryDy=0;" edge="1" parent="1" source="OeztBAv4BWSv31mNgJJ6-7" target="OeztBAv4BWSv31mNgJJ6-6">
          <mxGeometry relative="1" as="geometry">
            <mxPoint x="220" y="530" as="targetPoint" />
            <Array as="points">
              <mxPoint x="280" y="560" />
              <mxPoint x="280" y="455" />
            </Array>
          </mxGeometry>
        </mxCell>
        <mxCell id="OeztBAv4BWSv31mNgJJ6-7" value="lexemes[identifier] = new Identifier(identifier)" style="rounded=0;whiteSpace=wrap;html=1;" vertex="1" parent="1">
          <mxGeometry x="325" y="520" width="150" height="70" as="geometry" />
        </mxCell>
        <mxCell id="OeztBAv4BWSv31mNgJJ6-31" value="" style="edgeStyle=orthogonalEdgeStyle;rounded=0;orthogonalLoop=1;jettySize=auto;html=1;" edge="1" parent="1" source="OeztBAv4BWSv31mNgJJ6-8" target="OeztBAv4BWSv31mNgJJ6-9">
          <mxGeometry relative="1" as="geometry" />
        </mxCell>
        <mxCell id="OeztBAv4BWSv31mNgJJ6-33" style="edgeStyle=orthogonalEdgeStyle;rounded=0;orthogonalLoop=1;jettySize=auto;html=1;entryX=0.5;entryY=0;entryDx=0;entryDy=0;exitX=1;exitY=0.5;exitDx=0;exitDy=0;" edge="1" parent="1" source="OeztBAv4BWSv31mNgJJ6-8" target="OeztBAv4BWSv31mNgJJ6-10">
          <mxGeometry relative="1" as="geometry">
            <mxPoint x="515.02" y="1002.48" as="targetPoint" />
            <mxPoint x="485.00467432950177" y="787.5144827586207" as="sourcePoint" />
            <Array as="points">
              <mxPoint x="510" y="665" />
              <mxPoint x="510" y="830" />
              <mxPoint x="400" y="830" />
            </Array>
          </mxGeometry>
        </mxCell>
        <mxCell id="OeztBAv4BWSv31mNgJJ6-8" value="for (const string&amp;amp; keyword : keywords)" style="shape=hexagon;perimeter=hexagonPerimeter2;whiteSpace=wrap;html=1;fixedSize=1;" vertex="1" parent="1">
          <mxGeometry x="330" y="620" width="140" height="90" as="geometry" />
        </mxCell>
        <mxCell id="OeztBAv4BWSv31mNgJJ6-32" style="edgeStyle=orthogonalEdgeStyle;rounded=0;orthogonalLoop=1;jettySize=auto;html=1;entryX=0;entryY=0.5;entryDx=0;entryDy=0;" edge="1" parent="1" source="OeztBAv4BWSv31mNgJJ6-9" target="OeztBAv4BWSv31mNgJJ6-8">
          <mxGeometry relative="1" as="geometry">
            <mxPoint x="260" y="780" as="targetPoint" />
            <Array as="points">
              <mxPoint x="300" y="775" />
              <mxPoint x="300" y="665" />
            </Array>
          </mxGeometry>
        </mxCell>
        <mxCell id="OeztBAv4BWSv31mNgJJ6-9" value="lexemes[keyword] = new Keyword(keyword)" style="rounded=0;whiteSpace=wrap;html=1;" vertex="1" parent="1">
          <mxGeometry x="330" y="740" width="140" height="70" as="geometry" />
        </mxCell>
        <mxCell id="OeztBAv4BWSv31mNgJJ6-10" value="A" style="ellipse;whiteSpace=wrap;html=1;" vertex="1" parent="1">
          <mxGeometry x="340" y="840" width="120" height="80" as="geometry" />
        </mxCell>
        <mxCell id="OeztBAv4BWSv31mNgJJ6-34" value="" style="edgeStyle=orthogonalEdgeStyle;rounded=0;orthogonalLoop=1;jettySize=auto;html=1;" edge="1" parent="1" source="OeztBAv4BWSv31mNgJJ6-11" target="OeztBAv4BWSv31mNgJJ6-12">
          <mxGeometry relative="1" as="geometry" />
        </mxCell>
        <mxCell id="OeztBAv4BWSv31mNgJJ6-11" value="A" style="ellipse;whiteSpace=wrap;html=1;" vertex="1" parent="1">
          <mxGeometry x="340" y="1230" width="120" height="80" as="geometry" />
        </mxCell>
        <mxCell id="OeztBAv4BWSv31mNgJJ6-35" value="" style="edgeStyle=orthogonalEdgeStyle;rounded=0;orthogonalLoop=1;jettySize=auto;html=1;" edge="1" parent="1" source="OeztBAv4BWSv31mNgJJ6-12" target="OeztBAv4BWSv31mNgJJ6-13">
          <mxGeometry relative="1" as="geometry" />
        </mxCell>
        <mxCell id="OeztBAv4BWSv31mNgJJ6-37" style="edgeStyle=orthogonalEdgeStyle;rounded=0;orthogonalLoop=1;jettySize=auto;html=1;entryX=0.5;entryY=0;entryDx=0;entryDy=0;" edge="1" parent="1" source="OeztBAv4BWSv31mNgJJ6-12" target="OeztBAv4BWSv31mNgJJ6-14">
          <mxGeometry relative="1" as="geometry">
            <mxPoint x="530" y="1600" as="targetPoint" />
            <Array as="points">
              <mxPoint x="500" y="1405" />
              <mxPoint x="500" y="1530" />
              <mxPoint x="400" y="1530" />
            </Array>
          </mxGeometry>
        </mxCell>
        <mxCell id="OeztBAv4BWSv31mNgJJ6-12" value="for (const string&amp;amp; operator_ : operators)" style="shape=hexagon;perimeter=hexagonPerimeter2;whiteSpace=wrap;html=1;fixedSize=1;" vertex="1" parent="1">
          <mxGeometry x="330" y="1330" width="140" height="90" as="geometry" />
        </mxCell>
        <mxCell id="OeztBAv4BWSv31mNgJJ6-36" style="edgeStyle=orthogonalEdgeStyle;rounded=0;orthogonalLoop=1;jettySize=auto;html=1;entryX=0;entryY=0.5;entryDx=0;entryDy=0;" edge="1" parent="1" source="OeztBAv4BWSv31mNgJJ6-13" target="OeztBAv4BWSv31mNgJJ6-12">
          <mxGeometry relative="1" as="geometry">
            <mxPoint x="270" y="1400" as="targetPoint" />
            <Array as="points">
              <mxPoint x="300" y="1475" />
              <mxPoint x="300" y="1375" />
            </Array>
          </mxGeometry>
        </mxCell>
        <mxCell id="OeztBAv4BWSv31mNgJJ6-13" value="lexemes[operator_] = new Operator(operator_)" style="rounded=0;whiteSpace=wrap;html=1;" vertex="1" parent="1">
          <mxGeometry x="330" y="1440" width="140" height="70" as="geometry" />
        </mxCell>
        <mxCell id="OeztBAv4BWSv31mNgJJ6-38" value="" style="edgeStyle=orthogonalEdgeStyle;rounded=0;orthogonalLoop=1;jettySize=auto;html=1;" edge="1" parent="1" source="OeztBAv4BWSv31mNgJJ6-14" target="OeztBAv4BWSv31mNgJJ6-15">
          <mxGeometry relative="1" as="geometry" />
        </mxCell>
        <mxCell id="OeztBAv4BWSv31mNgJJ6-40" style="edgeStyle=orthogonalEdgeStyle;rounded=0;orthogonalLoop=1;jettySize=auto;html=1;entryX=0.5;entryY=0;entryDx=0;entryDy=0;exitX=1;exitY=0.5;exitDx=0;exitDy=0;" edge="1" parent="1" source="OeztBAv4BWSv31mNgJJ6-14" target="OeztBAv4BWSv31mNgJJ6-16">
          <mxGeometry relative="1" as="geometry">
            <mxPoint x="540" y="1870" as="targetPoint" />
            <mxPoint x="530" y="1590" as="sourcePoint" />
            <Array as="points">
              <mxPoint x="500" y="1585" />
              <mxPoint x="500" y="1740" />
              <mxPoint x="400" y="1740" />
            </Array>
          </mxGeometry>
        </mxCell>
        <mxCell id="OeztBAv4BWSv31mNgJJ6-14" value="for (const string&amp;amp; operator_ : operators)" style="shape=hexagon;perimeter=hexagonPerimeter2;whiteSpace=wrap;html=1;fixedSize=1;" vertex="1" parent="1">
          <mxGeometry x="330" y="1540" width="140" height="90" as="geometry" />
        </mxCell>
        <mxCell id="OeztBAv4BWSv31mNgJJ6-39" style="edgeStyle=orthogonalEdgeStyle;rounded=0;orthogonalLoop=1;jettySize=auto;html=1;entryX=0;entryY=0.5;entryDx=0;entryDy=0;" edge="1" parent="1" source="OeztBAv4BWSv31mNgJJ6-15" target="OeztBAv4BWSv31mNgJJ6-14">
          <mxGeometry relative="1" as="geometry">
            <mxPoint x="280" y="1670" as="targetPoint" />
            <Array as="points">
              <mxPoint x="310" y="1685" />
              <mxPoint x="310" y="1585" />
            </Array>
          </mxGeometry>
        </mxCell>
        <mxCell id="OeztBAv4BWSv31mNgJJ6-41" value="" style="edgeStyle=orthogonalEdgeStyle;rounded=0;orthogonalLoop=1;jettySize=auto;html=1;" edge="1" parent="1" source="OeztBAv4BWSv31mNgJJ6-16" target="OeztBAv4BWSv31mNgJJ6-17">
          <mxGeometry relative="1" as="geometry" />
        </mxCell>
        <mxCell id="OeztBAv4BWSv31mNgJJ6-43" style="edgeStyle=orthogonalEdgeStyle;rounded=0;orthogonalLoop=1;jettySize=auto;html=1;entryX=0.5;entryY=0;entryDx=0;entryDy=0;" edge="1" parent="1" source="OeztBAv4BWSv31mNgJJ6-16" target="OeztBAv4BWSv31mNgJJ6-19">
          <mxGeometry relative="1" as="geometry">
            <mxPoint x="510" y="2120" as="targetPoint" />
            <Array as="points">
              <mxPoint x="500" y="1795" />
              <mxPoint x="500" y="1940" />
              <mxPoint x="400" y="1940" />
            </Array>
          </mxGeometry>
        </mxCell>
        <mxCell id="OeztBAv4BWSv31mNgJJ6-16" value="for (const string&amp;amp; literal : literals)" style="shape=hexagon;perimeter=hexagonPerimeter2;whiteSpace=wrap;html=1;fixedSize=1;" vertex="1" parent="1">
          <mxGeometry x="330" y="1750" width="140" height="90" as="geometry" />
        </mxCell>
        <mxCell id="OeztBAv4BWSv31mNgJJ6-42" style="edgeStyle=orthogonalEdgeStyle;rounded=0;orthogonalLoop=1;jettySize=auto;html=1;entryX=0;entryY=0.5;entryDx=0;entryDy=0;" edge="1" parent="1" source="OeztBAv4BWSv31mNgJJ6-17" target="OeztBAv4BWSv31mNgJJ6-16">
          <mxGeometry relative="1" as="geometry">
            <mxPoint x="290" y="1920" as="targetPoint" />
            <Array as="points">
              <mxPoint x="310" y="1895" />
              <mxPoint x="310" y="1890" />
              <mxPoint x="310" y="1890" />
              <mxPoint x="310" y="1795" />
            </Array>
          </mxGeometry>
        </mxCell>
        <mxCell id="OeztBAv4BWSv31mNgJJ6-17" value="lexemes[literal] = new Literal(literal)" style="rounded=0;whiteSpace=wrap;html=1;" vertex="1" parent="1">
          <mxGeometry x="330" y="1860" width="140" height="70" as="geometry" />
        </mxCell>
        <mxCell id="OeztBAv4BWSv31mNgJJ6-19" value="B" style="ellipse;whiteSpace=wrap;html=1;" vertex="1" parent="1">
          <mxGeometry x="340" y="1950" width="120" height="80" as="geometry" />
        </mxCell>
        <mxCell id="OeztBAv4BWSv31mNgJJ6-44" value="" style="edgeStyle=orthogonalEdgeStyle;rounded=0;orthogonalLoop=1;jettySize=auto;html=1;" edge="1" parent="1" source="OeztBAv4BWSv31mNgJJ6-20" target="OeztBAv4BWSv31mNgJJ6-21">
          <mxGeometry relative="1" as="geometry" />
        </mxCell>
        <mxCell id="OeztBAv4BWSv31mNgJJ6-20" value="B" style="ellipse;whiteSpace=wrap;html=1;" vertex="1" parent="1">
          <mxGeometry x="340" y="2360" width="120" height="80" as="geometry" />
        </mxCell>
        <mxCell id="OeztBAv4BWSv31mNgJJ6-45" value="" style="edgeStyle=orthogonalEdgeStyle;rounded=0;orthogonalLoop=1;jettySize=auto;html=1;" edge="1" parent="1" source="OeztBAv4BWSv31mNgJJ6-21" target="OeztBAv4BWSv31mNgJJ6-22">
          <mxGeometry relative="1" as="geometry" />
        </mxCell>
        <mxCell id="OeztBAv4BWSv31mNgJJ6-47" style="edgeStyle=orthogonalEdgeStyle;rounded=0;orthogonalLoop=1;jettySize=auto;html=1;entryX=0.5;entryY=0;entryDx=0;entryDy=0;" edge="1" parent="1" source="OeztBAv4BWSv31mNgJJ6-21" target="OeztBAv4BWSv31mNgJJ6-23">
          <mxGeometry relative="1" as="geometry">
            <mxPoint x="520" y="2729.9999999999995" as="targetPoint" />
            <Array as="points">
              <mxPoint x="490" y="2505" />
              <mxPoint x="490" y="2660" />
              <mxPoint x="400" y="2660" />
            </Array>
          </mxGeometry>
        </mxCell>
        <mxCell id="OeztBAv4BWSv31mNgJJ6-21" value="for (const string&amp;amp; delimiter : delimiters)" style="shape=hexagon;perimeter=hexagonPerimeter2;whiteSpace=wrap;html=1;fixedSize=1;" vertex="1" parent="1">
          <mxGeometry x="330" y="2460" width="140" height="90" as="geometry" />
        </mxCell>
        <mxCell id="OeztBAv4BWSv31mNgJJ6-46" style="edgeStyle=orthogonalEdgeStyle;rounded=0;orthogonalLoop=1;jettySize=auto;html=1;entryX=0;entryY=0.5;entryDx=0;entryDy=0;" edge="1" parent="1" source="OeztBAv4BWSv31mNgJJ6-22" target="OeztBAv4BWSv31mNgJJ6-21">
          <mxGeometry relative="1" as="geometry">
            <mxPoint x="280" y="2539.9999999999995" as="targetPoint" />
            <Array as="points">
              <mxPoint x="320" y="2605" />
              <mxPoint x="320" y="2505" />
            </Array>
          </mxGeometry>
        </mxCell>
        <mxCell id="OeztBAv4BWSv31mNgJJ6-22" value="lexemes[delimiter] = new Delimiter(delimiter)" style="rounded=0;whiteSpace=wrap;html=1;" vertex="1" parent="1">
          <mxGeometry x="330" y="2570" width="140" height="70" as="geometry" />
        </mxCell>
        <mxCell id="OeztBAv4BWSv31mNgJJ6-55" style="edgeStyle=orthogonalEdgeStyle;rounded=0;orthogonalLoop=1;jettySize=auto;html=1;entryX=0.5;entryY=0;entryDx=0;entryDy=0;" edge="1" parent="1" source="OeztBAv4BWSv31mNgJJ6-23" target="OeztBAv4BWSv31mNgJJ6-48">
          <mxGeometry relative="1" as="geometry" />
        </mxCell>
        <mxCell id="OeztBAv4BWSv31mNgJJ6-23" value="~LexicalAnalyzer() = default;" style="rounded=0;whiteSpace=wrap;html=1;" vertex="1" parent="1">
          <mxGeometry x="315" y="2670" width="170" height="40" as="geometry" />
        </mxCell>
        <mxCell id="OeztBAv4BWSv31mNgJJ6-56" value="" style="edgeStyle=orthogonalEdgeStyle;rounded=0;orthogonalLoop=1;jettySize=auto;html=1;" edge="1" parent="1" source="OeztBAv4BWSv31mNgJJ6-48" target="OeztBAv4BWSv31mNgJJ6-49">
          <mxGeometry relative="1" as="geometry" />
        </mxCell>
        <mxCell id="OeztBAv4BWSv31mNgJJ6-48" value="void analyzeLexeme(const string&amp;amp; lexeme)" style="rounded=0;whiteSpace=wrap;html=1;" vertex="1" parent="1">
          <mxGeometry x="325" y="2730" width="150" height="50" as="geometry" />
        </mxCell>
        <mxCell id="OeztBAv4BWSv31mNgJJ6-57" style="edgeStyle=orthogonalEdgeStyle;rounded=0;orthogonalLoop=1;jettySize=auto;html=1;entryX=0.5;entryY=0;entryDx=0;entryDy=0;" edge="1" parent="1" source="OeztBAv4BWSv31mNgJJ6-49" target="OeztBAv4BWSv31mNgJJ6-50">
          <mxGeometry relative="1" as="geometry">
            <Array as="points">
              <mxPoint x="215" y="2865" />
            </Array>
          </mxGeometry>
        </mxCell>
        <mxCell id="OeztBAv4BWSv31mNgJJ6-59" style="edgeStyle=orthogonalEdgeStyle;rounded=0;orthogonalLoop=1;jettySize=auto;html=1;entryX=0.5;entryY=0;entryDx=0;entryDy=0;" edge="1" parent="1" source="OeztBAv4BWSv31mNgJJ6-49" target="OeztBAv4BWSv31mNgJJ6-51">
          <mxGeometry relative="1" as="geometry">
            <Array as="points">
              <mxPoint x="550" y="2865" />
            </Array>
          </mxGeometry>
        </mxCell>
        <mxCell id="OeztBAv4BWSv31mNgJJ6-49" value="lexemes.find(lexeme) != lexemes.end()" style="rhombus;whiteSpace=wrap;html=1;" vertex="1" parent="1">
          <mxGeometry x="320" y="2800" width="160" height="130" as="geometry" />
        </mxCell>
        <mxCell id="OeztBAv4BWSv31mNgJJ6-61" style="edgeStyle=orthogonalEdgeStyle;rounded=0;orthogonalLoop=1;jettySize=auto;html=1;entryX=0.5;entryY=0;entryDx=0;entryDy=0;" edge="1" parent="1" source="OeztBAv4BWSv31mNgJJ6-50" target="OeztBAv4BWSv31mNgJJ6-52">
          <mxGeometry relative="1" as="geometry" />
        </mxCell>
        <mxCell id="OeztBAv4BWSv31mNgJJ6-50" value="cout &amp;lt;&amp;lt; &quot;Лексема: &quot; &amp;lt;&amp;lt; lexeme &amp;lt;&amp;lt; &quot; - Класс: &quot; &amp;lt;&amp;lt; lexemes[lexeme]-&amp;gt;getClass() &amp;lt;&amp;lt; endl;" style="shape=parallelogram;perimeter=parallelogramPerimeter;whiteSpace=wrap;html=1;fixedSize=1;" vertex="1" parent="1">
          <mxGeometry x="70" y="2900" width="290" height="70" as="geometry" />
        </mxCell>
        <mxCell id="OeztBAv4BWSv31mNgJJ6-63" style="edgeStyle=orthogonalEdgeStyle;rounded=0;orthogonalLoop=1;jettySize=auto;html=1;entryX=0.5;entryY=0;entryDx=0;entryDy=0;" edge="1" parent="1" source="OeztBAv4BWSv31mNgJJ6-51" target="OeztBAv4BWSv31mNgJJ6-52">
          <mxGeometry relative="1" as="geometry" />
        </mxCell>
        <mxCell id="OeztBAv4BWSv31mNgJJ6-51" value="&amp;nbsp; cout &amp;lt;&amp;lt; &quot;Лексема: &quot; &amp;lt;&amp;lt; lexeme &amp;lt;&amp;lt; &quot; - Класс: Неизвестный&quot; &amp;lt;&amp;lt; endl;" style="shape=parallelogram;perimeter=parallelogramPerimeter;whiteSpace=wrap;html=1;fixedSize=1;" vertex="1" parent="1">
          <mxGeometry x="420" y="2900" width="260" height="70" as="geometry" />
        </mxCell>
        <mxCell id="OeztBAv4BWSv31mNgJJ6-52" value="конец" style="ellipse;whiteSpace=wrap;html=1;" vertex="1" parent="1">
          <mxGeometry x="340" y="3010" width="120" height="60" as="geometry" />
        </mxCell>
        <mxCell id="OeztBAv4BWSv31mNgJJ6-58" value="1" style="text;html=1;align=center;verticalAlign=middle;resizable=0;points=[];autosize=1;strokeColor=none;fillColor=none;" vertex="1" parent="1">
          <mxGeometry x="270" y="2840" width="30" height="30" as="geometry" />
        </mxCell>
        <mxCell id="OeztBAv4BWSv31mNgJJ6-60" value="0" style="text;html=1;align=center;verticalAlign=middle;resizable=0;points=[];autosize=1;strokeColor=none;fillColor=none;" vertex="1" parent="1">
          <mxGeometry x="505" y="2840" width="30" height="30" as="geometry" />
        </mxCell>
        <mxCell id="OeztBAv4BWSv31mNgJJ6-64" value="" style="edgeStyle=orthogonalEdgeStyle;rounded=0;orthogonalLoop=1;jettySize=auto;html=1;entryX=0.5;entryY=0;entryDx=0;entryDy=0;" edge="1" parent="1" source="OeztBAv4BWSv31mNgJJ6-14" target="OeztBAv4BWSv31mNgJJ6-15">
          <mxGeometry relative="1" as="geometry">
            <mxPoint x="400" y="1880" as="targetPoint" />
            <mxPoint x="400" y="1630" as="sourcePoint" />
            <Array as="points" />
          </mxGeometry>
        </mxCell>
        <mxCell id="OeztBAv4BWSv31mNgJJ6-15" value="lexemes[operator_] = new Operator(operator_)" style="rounded=0;whiteSpace=wrap;html=1;" vertex="1" parent="1">
          <mxGeometry x="330" y="1650" width="140" height="70" as="geometry" />
        </mxCell>
      </root>
    </mxGraphModel>
  </diagram>
</mxfile>
